<svg width="185" height="81" viewBox="0 0 185 81" fill="none" xmlns="http://www.w3.org/2000/svg">
<g clip-path="url(#clip0_1_4939)">
<path d="M132.47 81H33.0349C29.1993 81 25.735 78.6079 24.374 74.9786L0.494657 10.5993C-1.40249 5.48523 2.3918 0 7.87704 0H94.7335C99.3526 0 103.436 2.84572 105.044 7.17617L132.429 81H132.47Z" fill="#3D1F6A"/>
<path d="M184.065 81C182.704 77.4531 179.28 75.0611 175.445 75.0611H34.8084C33.1587 75.0611 31.839 76.3808 31.839 78.0305C31.839 79.6802 33.1587 81 34.8084 81H184.065Z" fill="#6AA5D8"/>
<path d="M29.2409 69.8232H121.5L99.2292 9.85677C98.4456 7.75341 96.466 6.35117 94.1977 6.35117H7.87739C7.21751 6.35117 6.84633 6.72235 6.64012 7.01104C6.4339 7.29974 6.22769 7.79465 6.47515 8.41328L29.2822 69.8232H29.2409Z" fill="#40A39A"/>
<path d="M48.006 59.1415H94.8161C96.7957 59.1415 98.1567 57.1619 97.4556 55.3472L84.6292 20.7861C83.8044 18.5178 81.6185 17.0331 79.2265 17.0331H32.4164C30.4367 17.0331 29.0757 19.0127 29.7769 20.8274L42.6032 55.3885C43.4281 57.6568 45.6139 59.1415 48.006 59.1415Z" fill="white"/>
</g>
<defs>
<clipPath id="clip0_1_4939">
<rect width="184.065" height="81" fill="white"/>
</clipPath>
</defs>
</svg>
