<svg width="79" height="146" viewBox="0 0 79 146" fill="none" xmlns="http://www.w3.org/2000/svg">
<g clip-path="url(#clip0_1_4950)">
<path d="M61.2977 146H17.6495C14.9545 146 12.7351 143.944 12.5766 141.256L4.22742 17.657H74.7197L66.3706 141.204C66.212 143.892 63.9398 145.947 61.2977 145.947V146Z" fill="#DDF0FF"/>
<path d="M66.8462 0H12.1538C7.50368 0 3.38194 3.00433 1.95518 7.43177L0.158528 12.8606C-0.634115 15.2325 1.16254 17.7097 3.699 17.7097H75.301C77.8375 17.7097 79.5813 15.2852 78.8415 12.8606L77.0977 7.43177C75.6709 3.00433 71.5492 0 66.899 0H66.8462Z" fill="#DDF0FF"/>
<path d="M5.0729 29.9379H73.9271L74.7726 17.657H4.22742L5.0729 29.9379Z" fill="#B6C4DE"/>
<path d="M68.1672 115.324L72.6589 48.3328H6.2883L10.8328 115.324H68.1672Z" fill="#9D5151"/>
<path d="M23.8849 61.8787C17.2267 61.8787 11.3084 65.1993 7.76788 70.2592L9.40601 94.7683C12.9993 98.6686 18.1251 101.146 23.8849 101.146C34.7706 101.146 43.5425 92.3437 43.5425 81.5387C43.5425 70.7336 34.7177 61.9314 23.8849 61.9314V61.8787Z" fill="#40A39A"/>
</g>
<defs>
<clipPath id="clip0_1_4950">
<rect width="79" height="146" fill="white"/>
</clipPath>
</defs>
</svg>
