<svg width="103" height="144" viewBox="0 0 103 144" fill="none" xmlns="http://www.w3.org/2000/svg">
<g clip-path="url(#clip0_1_4956)">
<path d="M44.8848 140.32H90.4496C96.0138 140.32 100.465 133.942 99.0432 127.932L72.3968 15.8842C70.6657 8.52472 64.9778 3.67975 58.1153 3.67975H12.5504C6.9862 3.67975 2.53482 10.0579 3.95679 16.0682L30.6032 128.177C32.3343 135.537 38.0222 140.382 44.8848 140.382V140.32Z" fill="#FFCD80"/>
<path d="M90.4496 144H44.8848C36.353 144 29.1195 137.99 27.0174 128.974L0.370969 16.8654C-0.618227 12.6951 0.370969 8.15673 3.15308 4.72232C5.56425 1.71721 9.02643 0 12.5504 0H58.1153C66.7089 0 73.8806 6.07155 76.0444 15.0256L102.629 127.135C103.618 131.305 102.629 135.843 99.847 139.278C97.4358 142.283 93.9736 144.061 90.4496 144.061V144ZM12.5504 7.35945C11.2521 7.35945 9.9538 8.0954 8.96461 9.32198C7.66629 10.9779 7.10986 13.247 7.60446 15.2095L34.2509 127.319C35.6111 133.022 39.8152 136.702 44.8848 136.702H90.4496C91.7479 136.702 93.0462 135.966 94.0354 134.739C95.3338 133.083 95.8902 130.814 95.3956 128.852L68.8109 16.7428C67.4508 11.0392 63.2467 7.35945 58.1771 7.35945H12.5504Z" fill="#3D1F6A"/>
<path d="M37.8985 17.3561C36.2293 17.3561 34.6836 16.1909 34.3127 14.535L31.9633 4.53843C31.4688 2.57591 32.7052 0.552056 34.7455 0.122754C36.7239 -0.367876 38.7641 0.8587 39.1968 2.88255L41.5462 12.8791C42.0408 14.8417 40.8043 16.8655 38.7641 17.2948C38.4549 17.3561 38.2076 17.4175 37.8985 17.4175V17.3561Z" fill="#3D1F6A"/>
<path d="M27.141 56.4225H58.6098C61.6392 56.4225 63.8649 53.6014 63.1848 50.6576L60.0936 37.6559C59.4135 34.8348 56.8787 32.8723 53.9729 32.8723H22.5042C19.4747 32.8723 17.2491 35.6934 17.9291 38.6372L21.0204 51.6389C21.7004 54.46 24.2352 56.4225 27.141 56.4225Z" fill="white"/>
<path d="M45.0702 91.1346H76.539C79.5684 91.1346 81.7941 88.3135 81.114 85.3697L78.0228 72.368C77.3427 69.5469 74.8079 67.5844 71.9021 67.5844H40.4334C37.4039 67.5844 35.1783 70.4055 35.8583 73.3493L38.9496 86.351C39.6296 89.1721 42.1645 91.1346 45.0702 91.1346Z" fill="#DDF0FF"/>
<path d="M82.2887 108.307L81.9796 107.08C81.2995 104.259 78.7647 102.296 75.8589 102.296H44.3901C41.3607 102.296 39.135 105.118 39.8151 108.061L40.1242 109.288C40.8043 112.109 43.3391 114.072 46.2449 114.072H77.7137C80.7431 114.072 82.9688 111.25 82.2887 108.307Z" fill="white"/>
</g>
<defs>
<clipPath id="clip0_1_4956">
<rect width="103" height="144" fill="white"/>
</clipPath>
</defs>
</svg>
