<svg width="109" height="294" viewBox="0 0 109 294" fill="none" xmlns="http://www.w3.org/2000/svg">
<g clip-path="url(#clip0_1_22478)">
<path d="M96.8889 122.314L100.309 111.728C102.419 105.195 101.9 98.0955 98.8513 91.9397L82.9415 59.7699C81.6729 57.2055 77.8461 57.8204 77.4466 60.6503L74.6571 81.27C74.1174 85.2388 74.9585 89.2775 77.0261 92.7083L83.418 103.315C84.3011 104.782 84.5885 106.529 84.217 108.199L82.2125 117.255L96.8818 122.307L96.8889 122.314Z" fill="#055991"/>
<path d="M94.8143 127.002L96.8889 122.314C100.078 112.273 84.2031 110.051 82.2196 117.262L81.4206 120.888L94.8143 127.002Z" fill="#DDF0FF"/>
<path d="M81.4206 120.888L77.6218 138.091L86.7192 145.309L94.8213 127.009C98.1995 118.492 82.7662 114.746 81.4276 120.895L81.4206 120.888Z" fill="#FFA2AD"/>
<path d="M86.3337 130.426C87.8966 131.614 88.9129 133.41 89.1162 135.359L89.5016 139.006L86.7122 145.309L77.6148 138.091L79.5632 129.28L80.8248 129.07C82.7592 128.749 84.7707 129.245 86.3337 130.433V130.426Z" fill="#EF897B"/>
<path d="M27.1168 264.562C23.297 265.352 20.5706 268.727 20.6197 272.612C20.6758 277.971 20.2342 281.604 20.024 283.84C19.6245 288.187 19.3231 293.015 19.5614 293.993H37.2725C37.4057 291.422 37.2585 289.179 35.7236 287.201C34.9316 286.181 34.1956 284.686 33.6279 282.499C31.6935 275.099 32.3874 266.19 32.1771 263.514L27.1238 264.555L27.1168 264.562Z" fill="#9D5151"/>
<path d="M19.8067 286.426C19.8768 285.566 19.9469 284.693 20.024 283.84C20.2272 281.604 20.6758 277.971 20.6197 272.612C20.5777 268.727 23.3041 265.352 27.1168 264.562L32.1701 263.521C32.3804 266.155 31.7146 274.813 33.5368 282.142C29.4858 277.216 24.4605 281.213 19.8067 286.433V286.426Z" fill="#3D1F6A"/>
<path d="M92.4173 282.638C86.8243 278.209 84.7217 273.227 83.6213 269.349C82.6961 266.085 79.4441 264.024 76.2411 264.667C72.8278 265.352 70.8163 268.831 71.8256 272.304L71.9167 272.612C73.4726 277.971 72.6806 281.604 72.4494 283.84C72.0078 288.186 72.0639 293.015 73.2063 293.993H108.993C108.867 291.478 107.787 289.27 101.781 287.32C98.4588 286.244 95.1927 284.84 92.4103 282.638H92.4173Z" fill="#9D5151"/>
<path d="M76.2412 264.667C79.4442 264.024 82.6962 266.085 83.6214 269.349C84.3503 271.906 85.5348 274.945 87.8476 277.992C79.2129 278.809 74.9866 282.904 72.2882 285.957C72.3303 285.252 72.3864 284.539 72.4564 283.833C72.6877 281.597 73.4797 277.964 71.9238 272.605L71.8327 272.297C70.8234 268.825 72.8349 265.345 76.2482 264.66L76.2412 264.667Z" fill="#3D1F6A"/>
<path d="M70.6902 121.217C75.7155 121.936 79.6263 126.317 79.8086 131.453L87.0206 276.867L71.4822 277.412L54.9415 178.129C54.4579 175.32 53.6519 172.595 52.5866 169.981L34.8615 277.405H19.6455L21.7411 141.145C22.3158 132.997 28.6027 126.394 36.7328 125.388L70.6762 121.21L70.6902 121.217Z" fill="#FFCD80"/>
<path d="M80.888 153.128L80.3903 143.094L64.7608 145.19C47.0427 147.384 26.3039 143.988 22.2738 140.97C22.1266 140.858 21.9725 140.753 21.8113 140.662C21.7972 140.823 21.7692 140.984 21.7552 141.145L21.587 151.863C40.034 159.074 72.7368 154.344 80.888 153.128Z" fill="#FFB746"/>
<path d="M12.6718 70.4395C10.6954 67.7913 10.9477 64.109 13.2676 61.7473C16.5407 58.4213 19.7437 55.9128 31.3501 51.6086C45.2625 46.8293 58.7613 48.7648 73.704 52.7126C82.4649 55.0254 87.35 64.4444 84.0629 72.8711C78.2947 87.6564 76.6196 102.938 78.512 118.436L80.93 147.713C78.491 148.083 34.6513 155.238 21.3136 144.359L23.3462 117.688C23.9629 108.828 23.7527 99.9332 22.7925 91.1081C22.1827 85.5392 20.017 80.2568 16.6598 75.7639L12.6718 70.4325V70.4395Z" fill="#1D6BA0"/>
<path d="M60.5696 49.4286C66.52 56.0107 59.5043 71.4038 43.4472 63.2915C36.7819 59.9306 34.2097 53.4044 39.1579 49.3377C46.5311 47.8914 53.3576 48.1429 60.5696 49.4216V49.4286Z" fill="#DDF0FF"/>
<path d="M44.106 36.3902C38.9056 29.871 32.7519 22.3246 33.4107 13.5765C33.8102 8.26609 38.2537 2.02638 43.7416 2.80198C45.8582 3.10243 48.066 2.8439 49.7691 1.55823L66.9125 5.97424C70.2346 10.4182 70.7953 16.3435 68.5946 21.4373L65.8752 27.7259L44.106 36.3902Z" fill="#3D1F6A"/>
<path d="M43.1809 56.5627C41.0432 54.6062 39.9849 51.7414 40.1461 48.8486C40.3564 45.1104 40.6087 40.9878 40.6717 38.682C40.84 32.7288 44.898 32.2467 50.8975 33.8817C53.8272 34.6783 57.5208 37.5361 58.6352 40.6315L57.4717 55.0674C57.2054 58.4912 52.0259 64.675 43.1809 56.5627Z" fill="#FFA2AD"/>
<path d="M38.9476 25.5388L38.1135 17.2588C37.2304 6.88256 65.0061 5.83446 66.1205 14.0516C67.361 20.466 70.4308 35.2862 66.8213 41.463C64.936 44.6911 61.6979 46.2144 58.1655 46.7315C53.1473 47.4651 41.0502 46.969 40.8679 37.6339L38.9476 25.5388Z" fill="#FFA2AD"/>
<path d="M45.5919 45.0754C49.5869 47.1646 55.1308 47.1716 58.1445 46.7314L57.9413 49.2538C56.939 49.3726 55.8457 49.4564 54.6752 49.4564C51.3391 49.4564 47.5263 48.8835 44.4425 47.2834C43.9098 47.0109 43.6294 46.4169 43.7836 45.837C43.9939 45.0544 44.87 44.6981 45.5849 45.0754H45.5919Z" fill="#EF897B"/>
<path d="M40.9521 38.5842C28.7779 33.756 37.9243 14.6945 41.6179 30.7025L40.9521 38.5842Z" fill="#FFA2AD"/>
<path d="M40.854 7.20395L43.4683 16.9723C42.2838 18.9776 41.7862 21.3184 42.0595 23.6312L42.3819 26.3912C42.4941 27.3695 41.7932 28.2569 40.805 28.3756C39.8237 28.4874 38.9336 27.7887 38.8145 26.8035L38.2187 21.6538C37.8122 21.5001 37.3847 21.2695 36.9502 20.9201C33.2916 17.9924 36.1862 7.86076 40.854 7.20395Z" fill="#3D1F6A"/>
<path d="M39.4943 11.648C41.3165 11.4034 42.5781 10.8234 44.4915 11.0121C46.5591 11.2217 48.6547 11.4942 50.7012 11.8925C54.3738 12.6052 58.0254 13.6883 61.8171 13.7092C65.0411 13.7302 70.8934 12.6471 71.5382 8.79012C71.9868 6.09999 70.0384 4.15052 67.8516 2.82292C63.0787 -0.0768325 57.8922 -0.537998 52.4464 0.517093C46.461 1.67699 40.91 5.05189 39.4943 11.648Z" fill="#3D1F6A"/>
<path d="M49.2995 25.4619C50.213 25.4619 50.9536 24.7237 50.9536 23.8129C50.9536 22.9022 50.213 22.1639 49.2995 22.1639C48.386 22.1639 47.6454 22.9022 47.6454 23.8129C47.6454 24.7237 48.386 25.4619 49.2995 25.4619Z" fill="#3D1F6A"/>
<path d="M63.4011 25.4619C64.3146 25.4619 65.0552 24.7237 65.0552 23.8129C65.0552 22.9022 64.3146 22.1639 63.4011 22.1639C62.4876 22.1639 61.7471 22.9022 61.7471 23.8129C61.7471 24.7237 62.4876 25.4619 63.4011 25.4619Z" fill="#3D1F6A"/>
<path d="M77.8672 110.617L23.6615 110.645C23.7947 104.126 23.5003 97.6064 22.7925 91.1151C22.5051 88.4809 21.8533 85.9095 20.9071 83.45L80.6637 83.422C78.3648 92.3519 77.4677 101.442 77.8672 110.617Z" fill="#055991"/>
<path d="M14.3329 161.918L14.4941 162.435C15.1389 164.545 15.1949 166.781 14.6693 168.926L13.5969 173.259C13.1694 174.984 11.4523 176.067 9.70708 175.711L5.31961 174.817C2.86655 174.314 0.911108 172.434 0.39947 169.988C-2.83355e-05 168.088 -0.196273 165.761 0.301348 163.001L1.55591 156.049L3.60247 155.615C8.2773 154.623 12.9451 157.362 14.3329 161.925V161.918Z" fill="#FFA2AD"/>
<path d="M0.988186 124.696L0.946133 116.996C0.918098 112.35 1.44375 107.724 2.50207 103.196L11.5854 64.8147C11.9078 63.4522 13.695 63.1098 14.501 64.2627L22.449 75.6521C25.4837 80.0052 26.479 85.4623 25.1613 90.605L19.5473 112.573C19.0287 114.607 18.6012 116.661 18.2647 118.736L17.3186 125.046L0.995194 124.696H0.988186Z" fill="#1D6BA0"/>
<path d="M1.02325 131.299L1.13539 151.696L1.11437 157.851L12.4195 158.389L13.2045 152.366L16.1341 132.865L1.02325 131.299Z" fill="#FFA2AD"/>
<path d="M17.3116 125.046L16.1341 132.865L1.02326 131.299L0.98822 124.696L17.3116 125.046Z" fill="#DDF0FF"/>
<path d="M52.4535 36.2923C52.6918 36.6068 52.9651 36.9771 53.2875 37.4033C54.2897 38.7659 55.8807 39.6113 57.5698 39.5974C60.4995 39.5694 62.1255 37.3265 62.6302 35.5098C62.8965 34.5595 62.1676 33.6302 61.1793 33.6302H53.7851C52.4114 33.6302 51.6264 35.1953 52.4535 36.2923Z" fill="white"/>
<path d="M76.199 132.529L81.2663 131.684C83.8175 131.257 86.2005 133.067 86.4668 135.632L87.2448 143.003C87.5181 145.596 85.8501 147.999 83.3129 148.656C79.3109 149.69 75.2669 147.098 74.552 143.038L73.3955 136.463C73.0731 134.604 74.3207 132.844 76.185 132.536L76.199 132.529Z" fill="#FFA2AD"/>
</g>
<defs>
<clipPath id="clip0_1_22478">
<rect width="109" height="294" fill="white"/>
</clipPath>
</defs>
</svg>
