<svg width="113" height="302" viewBox="0 0 113 302" fill="none" xmlns="http://www.w3.org/2000/svg">
<g clip-path="url(#clip0_1_22448)">
<path d="M100.444 123.099L103.99 112.069C106.177 105.261 105.64 97.8635 102.479 91.4489L85.9852 57.9274C84.6701 55.2553 80.7029 55.896 80.2887 58.8448L77.3969 80.3309C76.8374 84.4665 77.7093 88.6749 79.8527 92.2499L86.4793 103.302C87.3948 104.831 87.6927 106.652 87.3076 108.392L85.2295 117.828L100.437 123.092L100.444 123.099Z" fill="#358E06"/>
<path d="M98.2937 127.985L100.444 123.099C103.75 112.637 87.2931 110.321 85.2368 117.835L84.4085 121.614L98.2937 127.985Z" fill="#DDF0FF"/>
<path d="M84.4085 121.614L80.4703 139.54L89.9015 147.061L98.301 127.992C101.803 119.117 85.8035 115.214 84.4157 121.621L84.4085 121.614Z" fill="#FFA2AD"/>
<path d="M89.5019 131.553C91.1222 132.79 92.1758 134.662 92.3865 136.693L92.7861 140.494L89.8943 147.061L80.4631 139.54L82.483 130.358L83.7909 130.14C85.7963 129.805 87.8816 130.322 89.5019 131.56V131.553Z" fill="#EF897B"/>
<path d="M28.112 271.325C24.152 272.148 21.3256 275.665 21.3764 279.713C21.4346 285.297 20.9768 289.084 20.7588 291.413C20.3447 295.942 20.0322 300.973 20.2793 301.993H38.6403C38.7784 299.313 38.6258 296.976 37.0345 294.916C36.2135 293.853 35.4506 292.294 34.862 290.016C32.8566 282.305 33.576 273.022 33.358 270.233L28.1192 271.318L28.112 271.325Z" fill="#9D5151"/>
<path d="M20.5336 294.107C20.6062 293.212 20.6789 292.302 20.7588 291.413C20.9695 289.084 21.4345 285.297 21.3764 279.713C21.3328 275.665 24.1593 272.148 28.1119 271.325L33.3507 270.24C33.5687 272.985 32.8784 282.006 34.7676 289.644C30.5678 284.511 25.3582 288.676 20.5336 294.115V294.107Z" fill="#3D1F6A"/>
<path d="M95.8088 290.161C90.0106 285.545 87.8308 280.354 86.69 276.313C85.7309 272.912 82.3595 270.765 79.039 271.434C75.5005 272.148 73.4151 275.774 74.4614 279.393L74.5559 279.713C76.1689 285.297 75.3479 289.084 75.1081 291.413C74.6504 295.942 74.7085 300.973 75.8928 301.993H112.993C112.862 299.372 111.743 297.071 105.516 295.039C102.072 293.918 98.6861 292.455 95.8015 290.161H95.8088Z" fill="#9D5151"/>
<path d="M79.039 271.434C82.3595 270.765 85.7309 272.913 86.69 276.313C87.4457 278.978 88.6736 282.145 91.0714 285.319C82.1197 286.171 77.7384 290.438 74.941 293.62C74.9846 292.884 75.0427 292.142 75.1154 291.406C75.3551 289.076 76.1762 285.29 74.5632 279.706L74.4687 279.385C73.4224 275.767 75.5077 272.141 79.0463 271.427L79.039 271.434Z" fill="#3D1F6A"/>
<path d="M73.2843 121.956C78.494 122.706 82.5484 127.271 82.7373 132.623L90.214 284.147L74.1054 284.715L56.9578 181.26C56.4564 178.333 55.6208 175.493 54.5164 172.77L36.1408 284.708H20.3665L22.539 142.722C23.1348 134.232 29.6523 127.351 38.0808 126.303L73.2698 121.949L73.2843 121.956Z" fill="#FFCD80"/>
<path d="M83.8563 155.216L83.3404 144.76L67.1373 146.945C48.769 149.231 27.2691 145.692 23.0912 142.547C22.9386 142.43 22.7787 142.321 22.6116 142.226C22.5971 142.394 22.568 142.561 22.5535 142.729L22.3791 153.898C41.5031 161.412 75.406 156.483 83.8563 155.216Z" fill="#FFB746"/>
<path d="M13.1368 69.0527C11.0878 66.2932 11.3494 62.4562 13.7544 59.9952C17.1476 56.5294 20.4681 53.9156 32.5005 49.4305C46.9235 44.4503 60.9177 46.4671 76.4087 50.5809C85.4911 52.9909 90.5555 62.8056 87.1477 71.5865C81.1679 86.993 79.4313 102.916 81.3931 119.066L83.8999 149.573C81.3713 149.959 35.9228 157.415 22.0957 146.078L24.2028 118.287C24.8422 109.054 24.6243 99.7857 23.6288 90.5898C22.9967 84.7869 20.7515 79.2825 17.2711 74.6008L13.1368 69.0454V69.0527Z" fill="#839E1E"/>
<path d="M62.7923 47.1516C68.9611 54.0102 61.6879 70.0502 45.0416 61.597C38.1317 58.0949 35.4651 51.2944 40.5949 47.0569C48.2386 45.5497 55.3157 45.8119 62.7923 47.1443V47.1516Z" fill="#DDF0FF"/>
<path d="M47.265 42.6155C51.4065 44.7925 57.1539 44.7998 60.2783 44.3411L60.0675 46.9695C59.0285 47.0933 57.895 47.1807 56.6816 47.1807C53.223 47.1807 49.2704 46.5836 46.0733 44.9163C45.5211 44.6323 45.2305 44.0135 45.3903 43.4091C45.6083 42.5937 46.5166 42.2223 47.2577 42.6155H47.265Z" fill="#EF897B"/>
<path d="M80.7247 110.918L24.5298 110.947C24.6679 104.154 24.3627 97.3611 23.6289 90.5971C23.331 87.8522 22.6552 85.1728 21.6743 82.6099L83.6238 82.5807C81.2405 91.8858 80.3105 101.358 80.7247 110.918Z" fill="#068E06"/>
<path d="M14.8589 164.368L15.026 164.907C15.6945 167.106 15.7526 169.435 15.2077 171.671L14.096 176.185C13.6527 177.983 11.8726 179.112 10.0634 178.74L5.51488 177.809C2.9718 177.284 0.944597 175.326 0.414183 172.777C2.43806e-05 170.797 -0.203422 168.372 0.31246 165.496L1.61306 158.252L3.73472 157.8C8.58111 156.767 13.4202 159.621 14.8589 164.375V164.368Z" fill="#FFA2AD"/>
<path d="M1.0245 125.582L0.980901 117.559C0.951838 112.717 1.49678 107.897 2.59394 103.179L12.0106 63.1843C12.3448 61.7645 14.1977 61.4077 15.0332 62.6091L23.2728 74.477C26.419 79.0131 27.4507 84.6995 26.0847 90.0583L20.2647 112.95C19.727 115.068 19.2838 117.209 18.9351 119.371L17.9542 125.946L1.03176 125.582H1.0245Z" fill="#3E9E1E"/>
<path d="M1.06085 132.463L1.17711 153.716L1.15531 160.13L12.8753 160.698L13.6891 154.415L16.7262 134.094L1.06085 132.463Z" fill="#FFA2AD"/>
<path d="M17.9469 125.946L16.7262 134.094L1.0608 132.463L1.02448 125.582L17.9469 125.946Z" fill="#DDF0FF"/>
<path d="M78.9954 133.744L84.2486 132.863C86.8934 132.419 89.3639 134.305 89.64 136.977L90.4465 144.658C90.7299 147.36 89.0006 149.864 86.3703 150.549C82.2214 151.626 78.029 148.925 77.2879 144.695L76.089 137.843C75.7547 135.907 77.0481 134.072 78.9808 133.751L78.9954 133.744Z" fill="#FFA2AD"/>
<path d="M48.9071 33.791C44.1043 27.7405 38.4224 20.7289 39.0254 12.6106C39.396 7.68142 43.5012 1.88577 48.5656 2.60659C50.5202 2.88326 52.5619 2.65027 54.1313 1.44891L69.9711 5.5481C73.0446 9.67641 73.5605 15.1808 71.526 19.9062L69.012 25.7455L48.8999 33.791H48.9071Z" fill="#3D1F6A"/>
<path d="M48.0497 52.5249C46.0734 50.7047 45.0925 48.0471 45.2451 45.3604C45.4412 41.8874 45.6738 38.0649 45.7319 35.917C45.8845 30.3835 49.6337 29.9394 55.1776 31.4611C57.8805 32.2037 61.2955 34.854 62.3273 37.7227L61.2519 51.1343C61.0049 54.316 56.2166 60.0534 48.0497 52.5176V52.5249Z" fill="#FFA2AD"/>
<path d="M44.1479 23.7141L43.3777 16.0254C42.5566 6.38542 68.2272 5.41705 69.2517 13.0475C70.3997 19.0033 73.2334 32.7717 69.8984 38.5018C68.1546 41.5015 65.1683 42.914 61.8986 43.3946C57.2629 44.079 46.0806 43.613 45.9135 34.9487L44.1406 23.7141H44.1479Z" fill="#FFA2AD"/>
<path d="M50.2803 41.8583C53.9714 43.795 59.0939 43.8023 61.8768 43.4019L61.6879 45.739C60.7578 45.8483 59.7551 45.9284 58.6725 45.9284C55.5917 45.9284 52.0678 45.3968 49.2195 43.9115C48.7327 43.6567 48.4711 43.1033 48.6164 42.5718C48.8126 41.851 49.6191 41.5161 50.2803 41.8656V41.8583Z" fill="#EF897B"/>
<path d="M45.9934 35.8369C34.7457 31.3519 43.196 13.6518 46.611 28.5123L45.9934 35.8369Z" fill="#FFA2AD"/>
<path d="M45.9063 6.68393L48.3258 15.756C47.2359 17.6199 46.7709 19.7897 47.0252 21.9376L47.3231 24.5005C47.4249 25.4106 46.7782 26.2333 45.8699 26.3425C44.9617 26.4445 44.1406 25.7965 44.0317 24.8864L43.4794 20.1028C43.1016 19.9644 42.7093 19.746 42.3096 19.4256C38.931 16.7098 41.6048 7.29553 45.9135 6.68393H45.9063Z" fill="#3D1F6A"/>
<path d="M44.642 10.8195C46.3277 10.5938 47.4902 10.055 49.2558 10.2298C51.1668 10.4191 53.1068 10.6739 54.9887 11.0452C58.3819 11.7078 61.7533 12.7126 65.2627 12.7344C68.2418 12.7563 73.6476 11.7515 74.2434 8.16197C74.6576 5.6646 72.8556 3.85892 70.843 2.62116C66.4398 -0.0655215 61.6443 -0.502379 56.609 0.480551C51.0796 1.55813 45.9498 4.69623 44.642 10.8195Z" fill="#3D1F6A"/>
<path d="M57.2629 36.4776C56.9796 36.4776 56.7035 36.3612 56.5073 36.1282C56.1585 35.7131 56.2094 35.087 56.6235 34.7375C59.2683 32.5095 63.439 32.5168 65.5679 34.7593C65.9385 35.1525 65.9239 35.7787 65.5316 36.1573C65.1392 36.5286 64.5143 36.5141 64.1365 36.1209C62.7487 34.6501 59.7116 34.7157 57.8951 36.2519C57.7134 36.4048 57.4882 36.4849 57.2629 36.4849V36.4776Z" fill="#EF897B"/>
<path d="M54.7707 21.872C55.5918 21.5881 56.391 22.4327 56.0132 23.2117C55.7444 23.7578 55.2721 24.1947 54.6545 24.4058C54.0369 24.617 53.3975 24.5587 52.8525 24.2893C52.0751 23.9107 52.1913 22.7457 53.0124 22.4691L54.7707 21.8648V21.872Z" fill="#3D1F6A"/>
<path d="M67.7259 22.5055C68.5397 22.804 68.6341 23.9617 67.8494 24.333C67.3045 24.5878 66.6578 24.6388 66.0475 24.4131C65.4371 24.1874 64.9721 23.736 64.7178 23.1899C64.3545 22.4036 65.1683 21.5735 65.9821 21.872L67.7332 22.5055H67.7259Z" fill="#3D1F6A"/>
</g>
<defs>
<clipPath id="clip0_1_22448">
<rect width="113" height="302" fill="white"/>
</clipPath>
</defs>
</svg>
